HIERARCHY
ROOT simHips
{
  OFFSET 0.727 85.0176 -1.35644
  CHANNELS 6 Xposition Yposition Zposition Zrotation Xrotation Yrotation
  JOINT simSpine
  {
    OFFSET -0.000355721 21.3001 -0.016921
    CHANNELS 3 Zrotation Xrotation Yrotation
    JOINT simLeftArm
    {
      OFFSET 13.5181 21.3012 0
      CHANNELS 3 Zrotation Xrotation Yrotation
      JOINT simLeftForeArm
      {
        OFFSET 24.5783 0 0
        CHANNELS 3 Zrotation Xrotation Yrotation
        JOINT simLeftHand
        {
          OFFSET 24.5783 0 0
          CHANNELS 3 Zrotation Xrotation Yrotation
          End Site
          {
            OFFSET 7.32568 1.52588e-05 0.0169305
          }
        }
      }
    }
    JOINT simHead
    {
      OFFSET 0 27.4458 -0.00489235
      CHANNELS 3 Zrotation Xrotation Yrotation
      End Site
      {
        OFFSET 0 0 0
      }
    }
    JOINT simRightArm
    {
      OFFSET -13.5174 21.3012 0
      CHANNELS 3 Zrotation Xrotation Yrotation
      JOINT simRightForeArm
      {
        OFFSET -24.5783 0 0
        CHANNELS 3 Zrotation Xrotation Yrotation
        JOINT simRightHand
        {
          OFFSET -24.5783 0 0
          CHANNELS 3 Zrotation Xrotation Yrotation
          End Site
          {
            OFFSET -7.32568 1.52588e-05 0.0169305
          }
        }
      }
    }
  }
  JOINT simRightUpLeg
  {
    OFFSET -8.44614 -9.41038 0.835684
    CHANNELS 3 Zrotation Xrotation Yrotation
    JOINT simRightLeg
    {
      OFFSET 0 -40.9639 0
      CHANNELS 3 Zrotation Xrotation Yrotation
      JOINT simRightFoot
      {
        OFFSET 0 -40.9639 0
        CHANNELS 3 Zrotation Xrotation Yrotation
        End Site
        {
          OFFSET 0.50614 -9.67405 14.6709
        }
      }
    }
  }
  JOINT simLeftUpLeg
  {
    OFFSET 8.44614 -9.41038 0.835684
    CHANNELS 3 Zrotation Xrotation Yrotation
    JOINT simLeftLeg
    {
      OFFSET 0 -40.9639 0
      CHANNELS 3 Zrotation Xrotation Yrotation
      JOINT simLeftFoot
      {
        OFFSET 0 -40.9639 0
        CHANNELS 3 Zrotation Xrotation Yrotation
        End Site
        {
          OFFSET -0.50614 -9.67405 14.6709
        }
      }
    }
  }
}
MOTION
Frames:	16
Frame Time:	0.0333333
10.0744 82.6291 17.088 -3.15717 -1.88057 -46.4275 -5.12424 13.8493 8.32964 -72.6652 -36.6155 -42.6497 2.94644e-05 -5.5706e-06 -111.412 -13.2111 -2.11727 -9.34903 4.71815 6.75439 34.9178 61.1961 28.2392 52.159 -6.19887e-05 5.30953e-06 110.363 7.87 -5.66177 20.4018 -32.7157 -14.1877 -23.0384 -18.6408 55.914 8.49222 19.0846 -14.7974 0.97183 28.8227 -37.8067 22.1262 9.46279 65.9147 -16.2229 -14.2091 -20.1082 -11.8251 
8.88071 82.2355 14.5244 -2.11248 -2.12553 -47.3539 -5.86525 12.7019 8.93377 -72.671 -36.3383 -40.0771 2.92167e-05 -6.16504e-06 -113.831 -12.7678 -3.857 -7.43513 4.23791 7.25729 35.2344 61.9158 29.7414 51.2836 -6.19681e-05 5.25376e-06 110.14 8.6979 -6.06517 20.3694 -31.7741 -15.0516 -21.7637 -17.5686 56.6389 5.62966 24.9733 -21.5568 0.0443211 30.3346 -37.6633 23.109 8.91148 64.0414 -16.0294 -16.1773 -18.2347 -11.5104 
7.85155 81.9274 11.917 -1.13914 -2.63811 -47.7134 -5.88297 12.2195 9.35083 -72.9171 -36.2315 -36.8795 2.90752e-05 -6.47598e-06 -115.113 -13.4768 -5.036 -6.63293 2.88948 7.60059 35.5142 61.338 30.998 50.3575 -6.19408e-05 5.1785e-06 109.839 9.82525 -5.84687 20.2188 -31.8763 -16.7782 -21.2028 -18.7594 58.7671 6.40632 31.5798 -23.9625 2.48988 30.9262 -37.4815 23.4306 8.76995 61.4581 -16.1422 -18.0905 -15.9172 -11.0663 
7.10342 81.8857 9.56769 -0.586212 -3.32933 -47.4892 -4.81869 12.2264 9.35412 -73.4909 -35.8493 -33.5177 2.91168e-05 -6.38649e-06 -114.743 -14.3432 -5.3443 -6.57182 0.672613 8.20116 35.5904 59.7435 31.6411 49.7786 -6.18937e-05 5.04603e-06 109.311 10.4841 -5.32521 19.8214 -32.8835 -18.2636 -22.3673 -18.8334 61.6386 6.80665 30.7212 -25.5237 4.55614 30.7485 -37.0243 23.3019 9.02447 58.809 -16.9947 -19.7095 -15.1964 -10.7695 
6.43468 82.2912 7.55409 -0.0548276 -3.94545 -47.1246 -3.88106 11.9062 9.21278 -74.1133 -35.3243 -31.1879 2.92697e-05 -6.04361e-06 -113.333 -14.8445 -4.50614 -5.99089 -1.46344 9.27556 35.6845 58.3371 31.493 49.5914 -6.18681e-05 4.9726e-06 109.019 10.6955 -5.13417 19.2585 -33.7758 -19.0543 -24.043 -17.9127 63.3889 6.66213 28.6487 -26.6491 5.70661 30.1669 -36.1665 23.3387 8.68811 56.6141 -17.2102 -20.7848 -16.5664 -11.3537 
5.77124 83.0947 5.9701 0.497765 -4.10745 -47.2505 -3.66195 11.086 9.15945 -74.3677 -35.6132 -30.739 2.94156e-05 -5.69352e-06 -111.909 -15.3657 -2.67822 -4.86472 -2.86581 10.3942 36.3476 57.8001 30.6389 50.3349 -6.18759e-05 4.99512e-06 109.109 10.7768 -5.46872 18.9131 -33.7164 -19.6795 -25.1299 -16.7391 63.566 6.48128 26.3884 -27.3372 5.23638 29.7379 -35.0038 23.7991 7.33375 55.6176 -15.8467 -21.153 -19.3156 -13.2131 
5.23783 84.2215 4.8658 0.760917 -3.82211 -48.0163 -3.86829 10.5164 9.11105 -74.306 -37.2628 -32.1768 2.95006e-05 -5.47733e-06 -111.036 -16.2099 -0.742442 -4.32515 -3.50277 10.5239 37.6732 57.9373 29.4616 52.2155 -6.19045e-05 5.07682e-06 109.434 10.7238 -5.9978 19.1304 -32.3429 -20.1425 -24.959 -15.2935 62.2679 4.98599 24.6557 -27.0042 4.61544 28.9573 -33.7087 24.0843 6.80617 56.244 -15.3843 -21.1972 -23.5301 -15.1721 
4.91829 85.5294 4.1897 0.746298 -3.31921 -49.1131 -4.12239 10.3333 8.99324 -74.7018 -39.7047 -35.2134 2.9527e-05 -5.40811e-06 -110.758 -17.1618 0.359374 -4.35478 -3.81232 9.74438 39.1401 58.3809 28.2952 54.4606 -6.19627e-05 5.23896e-06 110.081 10.4292 -6.60607 19.3897 -30.0451 -20.2783 -23.6418 -13.976 59.8175 2.73472 23.4841 -25.8844 3.96671 28.0924 -32.8249 23.6958 7.26906 58.8128 -15.9947 -22.719 -21.5141 -17.3275 
4.80976 86.7757 3.96204 0.650502 -2.64572 -50.5554 -4.17864 9.94966 9.01856 -75.7045 -41.9694 -38.9364 2.95196e-05 -5.42781e-06 -110.837 -17.5765 0.65516 -4.34806 -4.07937 8.86759 40.6951 58.8997 27.3496 56.2205 -6.20365e-05 5.4365e-06 110.872 9.90451 -7.28088 19.372 -27.6563 -20.3115 -22.0829 -13.1406 56.8943 1.31443 22.4451 -24.7253 2.9163 26.2406 -31.7615 22.6332 7.94316 61.6338 -16.7322 -22.6122 -19.2457 -18.7485 
4.84486 87.851 4.0603 0.663397 -1.79042 -52.5625 -4.02541 9.0415 9.22377 -76.7376 -43.9319 -42.1314 2.94725e-05 -5.54975e-06 -111.328 -17.1455 0.393968 -3.83871 -4.46862 8.17037 42.5659 59.2078 26.8817 57.4433 -6.20817e-05 5.55374e-06 111.344 9.43184 -7.94316 19.1026 -25.854 -20.6487 -21.2622 -12.8103 54.0398 1.08043 21.903 -23.2959 2.52162 23.9488 -30.1781 21.5741 7.50796 63.0402 -15.7321 -20.6179 -18.2629 -18.7705 
4.98817 88.622 4.32868 0.739399 -0.883811 -55.0235 -3.61994 7.95297 9.32248 -77.4092 -46.0164 -44.2047 2.93856e-05 -5.76748e-06 -112.208 -16.311 -0.348998 -3.02916 -5.06362 7.50635 44.9126 59.0052 27.0245 58.5927 -6.20577e-05 5.49171e-06 111.094 9.2217 -8.57774 18.7931 -25.0969 -21.3548 -21.3246 -13.3894 51.2668 4.08207 24.4424 -19.3984 2.61378 21.8895 -28.1452 20.999 6.1543 62.2406 -13.4956 -17.4004 -19.584 -16.3989 
5.24394 88.9265 4.6768 0.64644 -0.185148 -57.4288 -2.933 7.3173 9.05598 -77.8355 -48.1861 -45.4781 2.93066e-05 -5.95733e-06 -112.981 -15.733 -1.22404 -2.58911 -5.87672 6.71099 47.4792 58.2501 27.5291 60.0005 -6.19604e-05 5.23248e-06 110.055 9.19198 -9.14137 18.6633 -25.3922 -22.8376 -22.458 -14.772 50.5841 9.60402 25.8565 -14.9215 1.83904 20.2719 -26.0695 20.7249 5.24641 60.1167 -11.5463 -13.5959 -22.8425 -12.3092 
5.54858 88.6067 4.90704 0.290808 0.0376704 -59.1762 -2.36463 7.53108 8.47236 -78.2966 -49.8507 -46.7531 2.93056e-05 -5.95974e-06 -112.99 -15.8039 -1.51464 -3.0666 -6.60382 5.7161 49.6294 57.3245 28.0021 61.4444 -6.18319e-05 4.86625e-06 108.597 9.19651 -9.28595 18.7482 -26.2061 -24.5217 -23.9137 -16.8898 52.0354 14.4265 24.5653 -13.7875 1.44962 19.6672 -24.5067 20.4229 3.88643 59.0662 -7.66334 -11.0214 -27.4633 -10.9278 
5.70868 87.8344 4.82199 -0.133034 -0.41364 -59.8333 -2.56887 8.43195 7.85529 -78.5657 -50.3773 -48.0809 2.94039e-05 -5.72249e-06 -112.026 -16.41 -0.600886 -4.44933 -6.79317 4.70216 50.6865 56.8079 28.4508 61.973 -6.17265e-05 4.54092e-06 107.313 9.16344 -8.65794 18.9847 -27.5581 -25.5257 -24.5042 -18.2716 54.4398 16.4941 21.9681 -15.0044 1.55407 19.5992 -23.9166 20.1238 3.70665 59.7849 -6.76721 -11.5758 -30.9471 -11.2194 
5.5321 86.8641 4.37938 -0.35822 -1.46454 -59.3315 -3.59371 9.43268 7.48418 -78.1997 -49.5557 -48.6122 2.9549e-05 -5.34984e-06 -110.524 -16.9319 1.40988 -5.72075 -6.41368 4.10752 50.352 56.9486 29.2628 60.756 -6.16647e-05 4.33777e-06 106.516 9.18398 -7.5228 19.1785 -28.8628 -25.4849 -23.95 -19.1684 56.428 16.3349 20.2235 -17.3508 1.99482 19.2668 -24.2661 19.9408 5.13536 61.5839 -9.41129 -12.2922 -31.8363 -11.2693 
5.01173 85.9768 3.72288 -0.351941 -2.73674 -58.0235 -4.58535 10.0648 7.37725 -77.1475 -47.7708 -47.2277 2.96589e-05 -5.0465e-06 -109.313 -16.7366 3.3647 -5.83966 -5.88374 4.59524 48.7951 57.5029 30.7472 58.0697 -6.16184e-05 4.17855e-06 105.893 9.58457 -6.39257 19.163 -29.7043 -24.4498 -22.863 -19.6337 57.4149 15.0053 20.0735 -20.2179 2.70741 18.6387 -24.626 19.7789 6.87051 63.0597 -12.3835 -12.3229 -32.6185 -11.4119 
